<svg xmlns="http://www.w3.org/2000/svg" width="1700" height="1960" viewBox="0 0 1700 1960" role="img" aria-labelledby="title desc">
  <title id="title">30 Panel HUB75 LED Wall Build Schematic</title>
  <desc id="desc">Schematic showing 30 HUB75 RGB LED panels in a 5 wide by 6 high array mounted with magnetic screws to vertical steel strips on a rigid backer board, with a symmetric front-removable PETG bezel, rear-mounted 5V power supplies, fused distribution, and Raspberry Pi HUB75 signal chains.</desc>
  <defs>
    <style>
      .title { font: 700 28px system-ui, -apple-system, BlinkMacSystemFont, "Segoe UI", sans-serif; fill: #111827; }
      .subtitle { font: 500 15px system-ui, -apple-system, BlinkMacSystemFont, "Segoe UI", sans-serif; fill: #374151; }
      .label { font: 600 14px system-ui, -apple-system, BlinkMacSystemFont, "Segoe UI", sans-serif; fill: #111827; }
      .small { font: 500 12px system-ui, -apple-system, BlinkMacSystemFont, "Segoe UI", sans-serif; fill: #374151; }
      .tiny { font: 500 10px system-ui, -apple-system, BlinkMacSystemFont, "Segoe UI", sans-serif; fill: #374151; }
      .panel { fill: #111827; stroke: #64748b; stroke-width: 1.4; }
      .pixel { fill: #1f2937; opacity: 0.8; }
      .seam { stroke: #94a3b8; stroke-width: 1; }
      .backer { fill: #d9b98f; stroke: #8b5e34; stroke-width: 2; }
      .steel { fill: #cbd5e1; stroke: #475569; stroke-width: 1.8; }
      .bezel { fill: #020617; stroke: #334155; stroke-width: 1.5; }
      .stop { fill: #f59e0b; stroke: #92400e; stroke-width: 1.5; }
      .psu { fill: #e5e7eb; stroke: #374151; stroke-width: 2; }
      .fuse { fill: #fee2e2; stroke: #b91c1c; stroke-width: 1.5; }
      .pi { fill: #dcfce7; stroke: #15803d; stroke-width: 2; }
      .slot { fill: #ffffff; stroke: #92400e; stroke-width: 1.5; }
      .screw { fill: #94a3b8; stroke: #334155; stroke-width: 1.5; }
      .insert { fill: #fcd34d; stroke: #92400e; stroke-width: 1.5; }
      .leader { fill: none; stroke: #64748b; stroke-width: 1.25; stroke-dasharray: 4 4; }
      .ribbon { fill: none; stroke: #2563eb; stroke-width: 3; stroke-linecap: round; stroke-linejoin: round; }
      .power { fill: none; stroke: #dc2626; stroke-width: 3; stroke-linecap: round; stroke-linejoin: round; }
      .ground { fill: none; stroke: #111827; stroke-width: 2.5; stroke-linecap: round; stroke-linejoin: round; }
      .dim { stroke: #475569; stroke-width: 1.5; marker-start: url(#arrow); marker-end: url(#arrow); }
      .callout { fill: #f8fafc; stroke: #cbd5e1; stroke-width: 1.5; rx: 10; }
    </style>
    <marker id="arrow" markerWidth="8" markerHeight="8" refX="4" refY="4" orient="auto">
      <path d="M0,0 L8,4 L0,8 Z" fill="#475569"/>
    </marker>
    <!-- One column of magnetic-screw landing points: 2 per panel row edge, 6 rows -->
    <g id="magcol">
      <circle class="insert" cx="0" cy="12" r="3.6"/><circle class="insert" cx="0" cy="38" r="3.6"/>
      <circle class="insert" cx="0" cy="62" r="3.6"/><circle class="insert" cx="0" cy="88" r="3.6"/>
      <circle class="insert" cx="0" cy="112" r="3.6"/><circle class="insert" cx="0" cy="138" r="3.6"/>
      <circle class="insert" cx="0" cy="162" r="3.6"/><circle class="insert" cx="0" cy="188" r="3.6"/>
      <circle class="insert" cx="0" cy="212" r="3.6"/><circle class="insert" cx="0" cy="238" r="3.6"/>
      <circle class="insert" cx="0" cy="262" r="3.6"/><circle class="insert" cx="0" cy="288" r="3.6"/>
    </g>
  </defs>

  <rect width="1700" height="1960" fill="#ffffff"/>
  <text x="50" y="50" class="title">30-Panel HUB75 Wall Build Schematic</text>
  <text x="50" y="78" class="subtitle">5×6 array (5 wide, 6 high), 4.20 ft × 2.52 ft, 640×384 px, magnetic screws on vertical steel strips, symmetric removable PETG bezel on backer margin, rear-mounted power/controller</text>

  <!-- Front view -->
  <text x="50" y="125" class="label">Front View: Scaled Symmetric Bezel Around 5×6 Panel Array</text>
  <text x="50" y="147" class="small">Panels: 1280 mm × 768 mm. Bezel shown at ~30 mm wide: visible, removable, and mounted to exposed backer margin.</text>

  <g transform="translate(50 175)">
    <!-- Scale: 500 x 300 panel array represents 1280 x 768 mm; 100 units = 256 mm. -->
    <rect x="-28" y="-28" width="556" height="356" class="backer" rx="8" opacity="0.45"/>
    <rect x="-10" y="-10" width="520" height="320" class="bezel" rx="8"/>
    <rect x="0" y="0" width="500" height="300" fill="#ffffff"/>
    <g id="front-panels">
      <!-- 5 x 6 panels, each 100 x 50 schematic units -->
      <rect class="panel" x="0" y="0" width="100" height="50"/><rect class="panel" x="100" y="0" width="100" height="50"/><rect class="panel" x="200" y="0" width="100" height="50"/><rect class="panel" x="300" y="0" width="100" height="50"/><rect class="panel" x="400" y="0" width="100" height="50"/>
      <rect class="panel" x="0" y="50" width="100" height="50"/><rect class="panel" x="100" y="50" width="100" height="50"/><rect class="panel" x="200" y="50" width="100" height="50"/><rect class="panel" x="300" y="50" width="100" height="50"/><rect class="panel" x="400" y="50" width="100" height="50"/>
      <rect class="panel" x="0" y="100" width="100" height="50"/><rect class="panel" x="100" y="100" width="100" height="50"/><rect class="panel" x="200" y="100" width="100" height="50"/><rect class="panel" x="300" y="100" width="100" height="50"/><rect class="panel" x="400" y="100" width="100" height="50"/>
      <rect class="panel" x="0" y="150" width="100" height="50"/><rect class="panel" x="100" y="150" width="100" height="50"/><rect class="panel" x="200" y="150" width="100" height="50"/><rect class="panel" x="300" y="150" width="100" height="50"/><rect class="panel" x="400" y="150" width="100" height="50"/>
      <rect class="panel" x="0" y="200" width="100" height="50"/><rect class="panel" x="100" y="200" width="100" height="50"/><rect class="panel" x="200" y="200" width="100" height="50"/><rect class="panel" x="300" y="200" width="100" height="50"/><rect class="panel" x="400" y="200" width="100" height="50"/>
      <rect class="panel" x="0" y="250" width="100" height="50"/><rect class="panel" x="100" y="250" width="100" height="50"/><rect class="panel" x="200" y="250" width="100" height="50"/><rect class="panel" x="300" y="250" width="100" height="50"/><rect class="panel" x="400" y="250" width="100" height="50"/>
      <line class="seam" x1="100" y1="0" x2="100" y2="300"/><line class="seam" x1="200" y1="0" x2="200" y2="300"/><line class="seam" x1="300" y1="0" x2="300" y2="300"/><line class="seam" x1="400" y1="0" x2="400" y2="300"/>
      <line class="seam" x1="0" y1="50" x2="500" y2="50"/><line class="seam" x1="0" y1="100" x2="500" y2="100"/><line class="seam" x1="0" y1="150" x2="500" y2="150"/><line class="seam" x1="0" y1="200" x2="500" y2="200"/><line class="seam" x1="0" y1="250" x2="500" y2="250"/>
    </g>
    <!-- Exposed front screws in bezel/backer margin; removable without removing panels. -->
    <circle class="screw" cx="40" cy="-18" r="4"/><circle class="screw" cx="150" cy="-18" r="4"/><circle class="screw" cx="260" cy="-18" r="4"/><circle class="screw" cx="370" cy="-18" r="4"/><circle class="screw" cx="480" cy="-18" r="4"/>
    <circle class="screw" cx="40" cy="318" r="4"/><circle class="screw" cx="150" cy="318" r="4"/><circle class="screw" cx="260" cy="318" r="4"/><circle class="screw" cx="370" cy="318" r="4"/><circle class="screw" cx="480" cy="318" r="4"/>
    <circle class="screw" cx="-18" cy="38" r="4"/><circle class="screw" cx="-18" cy="150" r="4"/><circle class="screw" cx="-18" cy="262" r="4"/>
    <circle class="screw" cx="518" cy="38" r="4"/><circle class="screw" cx="518" cy="150" r="4"/><circle class="screw" cx="518" cy="262" r="4"/>
    <line class="dim" x1="0" y1="350" x2="500" y2="350"/>
    <text x="170" y="375" class="small">4.20 ft / 50.39 in panel array</text>
    <line class="dim" x1="550" y1="0" x2="550" y2="300"/>
    <text x="562" y="155" class="small" transform="rotate(90 562 155)">2.52 ft / 30.24 in panel array</text>
    <text x="-24" y="-40" class="tiny">Backer extends beyond panels; bezel screws into exposed margin.</text>
  </g>

  <!-- Backer and steel strip plan -->
  <text x="760" y="125" class="label">Backer Plan: Vertical Steel Strips</text>
  <text x="760" y="147" class="small">Backer/front-face plan before panels are installed. 6 strips run top-to-bottom, centered on each panel-column edge: left edge, 4 seams, right edge.</text>
  <g transform="translate(760 180)">
    <rect class="callout" x="-15" y="-15" width="830" height="350"/>
    <rect class="backer" x="0" y="0" width="560" height="320" rx="8" opacity="0.55"/>
    <rect x="60" y="35" width="440" height="250" fill="#fff7ed" stroke="#8b5e34" stroke-width="1.5"/>
    <text x="64" y="28" class="tiny">panel array footprint (5 columns × 6 rows)</text>

    <!-- Six vertical steel strips, each centered on a column edge (no overlap, equal coverage of adjacent columns).
         Column edges at x = 60, 148, 236, 324, 412, 500 (column width 88). Strip width 16, so x = edge - 8.
         Strips extend ~12 units past the panel footprint top and bottom into the bezel margin. -->
    <rect class="steel" x="52" y="23" width="16" height="274" rx="2"/>
    <rect class="steel" x="140" y="23" width="16" height="274" rx="2"/>
    <rect class="steel" x="228" y="23" width="16" height="274" rx="2"/>
    <rect class="steel" x="316" y="23" width="16" height="274" rx="2"/>
    <rect class="steel" x="404" y="23" width="16" height="274" rx="2"/>
    <rect class="steel" x="492" y="23" width="16" height="274" rx="2"/>

    <!-- Panel grid overlay: 4 internal column seams, 5 internal row seams -->
    <line class="seam" x1="148" y1="35" x2="148" y2="285"/><line class="seam" x1="236" y1="35" x2="236" y2="285"/><line class="seam" x1="324" y1="35" x2="324" y2="285"/><line class="seam" x1="412" y1="35" x2="412" y2="285"/>
    <line class="seam" x1="60" y1="77" x2="500" y2="77"/><line class="seam" x1="60" y1="118" x2="500" y2="118"/><line class="seam" x1="60" y1="160" x2="500" y2="160"/><line class="seam" x1="60" y1="202" x2="500" y2="202"/><line class="seam" x1="60" y1="243" x2="500" y2="243"/>

    <!-- Bezel screw inserts around exposed backer margin, clear of strip ends. -->
    <circle class="insert" cx="104" cy="12" r="5"/><circle class="insert" cx="192" cy="12" r="5"/><circle class="insert" cx="280" cy="12" r="5"/><circle class="insert" cx="368" cy="12" r="5"/><circle class="insert" cx="456" cy="12" r="5"/>
    <circle class="insert" cx="104" cy="308" r="5"/><circle class="insert" cx="192" cy="308" r="5"/><circle class="insert" cx="280" cy="308" r="5"/><circle class="insert" cx="368" cy="308" r="5"/><circle class="insert" cx="456" cy="308" r="5"/>
    <circle class="insert" cx="24" cy="77" r="5"/><circle class="insert" cx="24" cy="160" r="5"/><circle class="insert" cx="24" cy="243" r="5"/>
    <circle class="insert" cx="536" cy="77" r="5"/><circle class="insert" cx="536" cy="160" r="5"/><circle class="insert" cx="536" cy="243" r="5"/>
    <text x="0" y="332" class="tiny">Each strip is centered on a column edge so it serves both adjacent panel columns; strips never overlap each other or the bezel inserts.</text>
    <text x="580" y="40" class="tiny">6 strips ×</text>
    <text x="580" y="56" class="tiny">~840 mm (33 in)</text>
    <text x="580" y="72" class="tiny">= 5.04 m total</text>
    <line class="leader" x1="576" y1="50" x2="510" y2="60"/>
  </g>

  <!-- Depth cross-section -->
  <text x="50" y="585" class="label">Depth Cross-Section: Panel, Magnet, Steel, Backer, PETG Bezel</text>
  <text x="50" y="610" class="small">Cut through the left outside edge. Front is left; wall/backer is right. The bezel is a Z/L profile screwed into the backer margin.</text>
  <g transform="translate(50 645)">
    <rect class="callout" x="0" y="0" width="1500" height="305"/>

    <g transform="translate(40 45)">
      <text x="0" y="0" class="small">True edge cross-section</text>
      <text x="0" y="22" class="tiny">Front/viewer side ← left; rear/wall side → right.</text>

      <!-- Structural backer as rear plane -->
      <rect class="backer" x="480" y="30" width="72" height="190" rx="3"/>
      <text x="472" y="242" class="tiny">backer</text>

      <!-- Vertical steel strip appears as a short cross-section on the backer face behind panel area. -->
      <rect class="steel" x="430" y="80" width="45" height="26" rx="2"/>
      <text x="392" y="126" class="tiny">steel strip cross-section</text>

      <!-- Panel is in front of strip; magnet bridges to steel. -->
      <rect class="panel" x="185" y="68" width="190" height="78" rx="4"/>
      <text x="236" y="112" fill="#e5e7eb" font-size="12" font-weight="700">panel body</text>
      <circle class="insert" cx="385" cy="94" r="13"/>
      <line x1="375" y1="94" x2="430" y2="94" stroke="#92400e" stroke-width="5"/>
      <text x="335" y="58" class="tiny">magnetic screw</text>

      <!-- Exposed margin is backer area outside panel footprint. -->
      <rect x="480" y="150" width="72" height="52" fill="#fef3c7" stroke="#8b5e34" stroke-dasharray="5 4"/>
      <text x="388" y="182" class="tiny">exposed backer margin</text>
      <line class="leader" x1="475" y1="176" x2="552" y2="176"/>

      <!-- PETG bezel Z/L profile. It has front lip overlapping panel edge and rear flange screwed to backer margin. -->
      <path class="bezel" d="M120 52 H224 V78 H185 V148 H120 Z M120 148 H492 V202 H120 Z" fill-rule="evenodd"/>
      <rect class="slot" x="405" y="169" width="44" height="12" rx="6"/>
      <circle class="screw" cx="427" cy="175" r="6"/>
      <line class="leader" x1="427" y1="175" x2="514" y2="176"/>
      <circle class="insert" cx="514" cy="176" r="9"/>

      <line class="dim" x1="176" y1="38" x2="185" y2="38"/>
      <text x="130" y="34" class="tiny">2-3mm overlap on edge only</text>
      <text x="0" y="270" class="tiny">Bezel screws are accessible from the front. Remove bezel segment first, then pull edge panel off magnets.</text>
    </g>

    <g transform="translate(730 45)">
      <text x="0" y="0" class="small">Bezel material and segmentation</text>
      <rect class="bezel" x="0" y="36" width="290" height="24" rx="5"/>
      <line x1="95" y1="36" x2="95" y2="60" stroke="#64748b" stroke-width="2"/>
      <line x1="195" y1="36" x2="195" y2="60" stroke="#64748b" stroke-width="2"/>
      <text x="0" y="88" class="tiny">Use black PETG/ASA segments with the same profile on all sides.</text>
      <text x="0" y="112" class="tiny">Use slotted screw holes for 1-2mm adjustment.</text>
      <text x="0" y="136" class="tiny">Backer margin target: 25-40mm outside panel array.</text>
      <text x="0" y="160" class="tiny">Visible bezel width target: 20-30mm.</text>
      <text x="0" y="184" class="tiny">Do not hide screws behind panels; screws must be front-removable.</text>
    </g>

    <g transform="translate(1120 45)">
      <text x="0" y="0" class="small">Service sequence</text>
      <text x="0" y="38" class="tiny">1. Remove the needed bezel segment from the front.</text>
      <text x="0" y="68" class="tiny">2. Pull the edge panel off magnetic screws.</text>
      <text x="0" y="98" class="tiny">3. Disconnect power and HUB75 cables.</text>
      <text x="0" y="128" class="tiny">4. Reinstall panel; magnets reseat against steel strips.</text>
      <text x="0" y="158" class="tiny">5. Reinstall bezel segment with slotted adjustment.</text>
    </g>
  </g>

  <!-- Rear view -->
  <text x="50" y="1045" class="label">Rear View: Power Zones, Data Chains, and Mounting Pattern</text>
  <text x="50" y="1067" class="small">Four 60A supplies feed four zones (9/6/9/6 panels). Grounds are common; +5V stays separated by zone unless using current-sharing hardware.</text>

  <g transform="translate(70 1105)">
    <rect class="backer" x="-30" y="-24" width="560" height="348" rx="8"/>
    <!-- rear panel outlines -->
    <g opacity="0.55">
      <rect fill="#fef3c7" stroke="#92400e" x="0" y="0" width="500" height="300"/>
      <!-- Six vertical steel strips centered on column edges at x = 0, 100, 200, 300, 400, 500 (strip width 18).
           Edge strips straddle the footprint edge onto the backer margin so panel-corner magnets land fully on steel. -->
      <rect class="steel" x="-9" y="-12" width="18" height="324" opacity="0.9"/>
      <rect class="steel" x="91" y="-12" width="18" height="324" opacity="0.9"/>
      <rect class="steel" x="191" y="-12" width="18" height="324" opacity="0.9"/>
      <rect class="steel" x="291" y="-12" width="18" height="324" opacity="0.9"/>
      <rect class="steel" x="391" y="-12" width="18" height="324" opacity="0.9"/>
      <rect class="steel" x="491" y="-12" width="18" height="324" opacity="0.9"/>
      <line class="seam" x1="100" y1="0" x2="100" y2="300"/><line class="seam" x1="200" y1="0" x2="200" y2="300"/><line class="seam" x1="300" y1="0" x2="300" y2="300"/><line class="seam" x1="400" y1="0" x2="400" y2="300"/>
      <line class="seam" x1="0" y1="50" x2="500" y2="50"/><line class="seam" x1="0" y1="100" x2="500" y2="100"/><line class="seam" x1="0" y1="150" x2="500" y2="150"/><line class="seam" x1="0" y1="200" x2="500" y2="200"/><line class="seam" x1="0" y1="250" x2="500" y2="250"/>
    </g>

    <!-- Magnet screw landing points: four per panel, all landing on a steel strip.
         Each strip carries one magnet column per adjacent panel (±5 units from the strip centerline). -->
    <use href="#magcol" x="5"/>
    <use href="#magcol" x="95"/><use href="#magcol" x="105"/>
    <use href="#magcol" x="195"/><use href="#magcol" x="205"/>
    <use href="#magcol" x="295"/><use href="#magcol" x="305"/>
    <use href="#magcol" x="395"/><use href="#magcol" x="405"/>
    <use href="#magcol" x="495"/>

    <text x="-12" y="316" class="tiny">Steel strip plan: 6 vertical strips: left edge, 4 shared column seams, right edge. 2&quot; wide required: inserts ~7.5mm off-edge, magnet feet ~Ø20mm → 35mm span + tolerance.</text>

    <!-- power zone outlines: left 3 columns x 3 rows = 9 panels; right 2 columns x 3 rows = 6 panels -->
    <rect x="14" y="8" width="274" height="134" fill="none" stroke="#dc2626" stroke-width="2" stroke-dasharray="6 6"/>
    <rect x="312" y="8" width="174" height="134" fill="none" stroke="#dc2626" stroke-width="2" stroke-dasharray="6 6"/>
    <rect x="14" y="158" width="274" height="134" fill="none" stroke="#dc2626" stroke-width="2" stroke-dasharray="6 6"/>
    <rect x="312" y="158" width="174" height="134" fill="none" stroke="#dc2626" stroke-width="2" stroke-dasharray="6 6"/>
    <text x="24" y="28" class="tiny">PSU 1: 9 panels / ~52A max</text>
    <text x="320" y="28" class="tiny">PSU 2: 6 panels / ~35A max</text>
    <text x="24" y="178" class="tiny">PSU 3: 9 panels / ~52A max</text>
    <text x="320" y="178" class="tiny">PSU 4: 6 panels / ~35A max</text>
  </g>

  <!-- Rear electronics detail -->
  <g transform="translate(745 1105)">
    <rect class="callout" x="-18" y="-18" width="605" height="336"/>
    <text x="0" y="5" class="label">Rear Electronics Layout</text>
    <rect class="pi" x="15" y="35" width="150" height="70" rx="8"/>
    <text x="34" y="64" class="small">Raspberry Pi 5</text>
    <text x="34" y="84" class="tiny">active-3 HUB75 adapter</text>

    <rect class="psu" x="310" y="28" width="110" height="48" rx="5"/><text x="335" y="57" class="small">PSU 1</text>
    <rect class="psu" x="450" y="28" width="110" height="48" rx="5"/><text x="475" y="57" class="small">PSU 2</text>
    <rect class="psu" x="310" y="210" width="110" height="48" rx="5"/><text x="335" y="239" class="small">PSU 3</text>
    <rect class="psu" x="450" y="210" width="110" height="48" rx="5"/><text x="475" y="239" class="small">PSU 4</text>

    <rect class="fuse" x="303" y="95" width="124" height="40" rx="4"/><text x="323" y="120" class="tiny">fused 5V distro</text>
    <rect class="fuse" x="443" y="95" width="124" height="40" rx="4"/><text x="463" y="120" class="tiny">fused 5V distro</text>
    <rect class="fuse" x="303" y="160" width="124" height="40" rx="4"/><text x="323" y="185" class="tiny">fused 5V distro</text>
    <rect class="fuse" x="443" y="160" width="124" height="40" rx="4"/><text x="463" y="185" class="tiny">fused 5V distro</text>

    <!-- power lines -->
    <line class="power" x1="365" y1="76" x2="365" y2="95"/>
    <line class="power" x1="505" y1="76" x2="505" y2="95"/>
    <line class="power" x1="365" y1="210" x2="365" y2="200"/>
    <line class="power" x1="505" y1="210" x2="505" y2="200"/>
    <line class="ground" x1="365" y1="258" x2="505" y2="258"/>
    <line class="ground" x1="90" y1="105" x2="90" y2="285"/>
    <line class="ground" x1="90" y1="285" x2="505" y2="285"/>
    <text x="108" y="282" class="tiny">common ground bus</text>

    <!-- data chains -->
    <path class="ribbon" d="M165 50 C210 50, 210 35, 250 35 H285"/>
    <path class="ribbon" d="M165 70 C220 70, 220 150, 285 150"/>
    <path class="ribbon" d="M165 90 C210 90, 210 270, 285 270"/>
    <text x="192" y="29" class="tiny">HUB75 OUT1 → rows 1-2</text>
    <text x="192" y="145" class="tiny">HUB75 OUT2 → rows 3-4</text>
    <text x="192" y="266" class="tiny">HUB75 OUT3 → rows 5-6</text>

    <rect x="18" y="132" width="240" height="84" fill="#eff6ff" stroke="#93c5fd" rx="8"/>
    <text x="32" y="154" class="small">Data chain plan</text>
    <text x="32" y="174" class="tiny">3 parallel chains × 10 panels each</text>
    <text x="32" y="192" class="tiny">Snake each chain across two rows of five</text>
    <text x="32" y="210" class="tiny">Ribbon cables carry signal only</text>
  </g>

  <!-- Bill of materials -->
  <text x="50" y="1475" class="label">Bill of Materials / Planning Quantities</text>
  <g transform="translate(50 1500)">
    <rect class="callout" x="0" y="0" width="1550" height="390"/>
    <text x="20" y="32" class="small">Core display</text>
    <text x="20" y="58" class="tiny">• 30 × P2 indoor HUB75/HUB75E RGB panels, 256mm × 128mm each, 128×64 px each, ICN6373C + ICN32019 chipset, 1/32 scan</text>
    <text x="20" y="80" class="tiny">• Total 5×6 panel array: 1280mm × 768mm / 50.39in × 30.24in / 4.20ft × 2.52ft, 640×384 px (current wall: 42in × 25in)</text>
    <text x="20" y="102" class="tiny">• 120 × M3/M4 LED-module magnetic screws, 15mm standoff height, 4 per panel; confirm M3 vs M4 and thread depth before bulk order</text>

    <text x="20" y="140" class="small">Mounting / enclosure</text>
    <text x="20" y="166" class="tiny">• 1 × 1/2&quot; plywood or MDF backer, approx 1360mm × 850mm target to allow 25–40mm bezel/backer margin around panel array</text>
    <text x="20" y="188" class="tiny">• Rear stiffness/wall standoff frame: 1×2 lumber, plywood ribs, or 2020 extrusion; provides cleat mount, airflow, and PSU clearance</text>
    <text x="20" y="210" class="tiny">• 6 × vertical mild-steel strips, 1/16&quot; thick, 2&quot; (50.8mm) wide; each approx 840mm (33in) long: 768mm array height + bezel-margin overrun</text>
    <text x="20" y="232" class="tiny">• Steel total length: 6 × 840mm = 5040mm / 5.04m / 16.5ft; buy three 8ft strips (two strips per stick) with offcuts for landing plates/mistakes</text>
    <text x="20" y="254" class="tiny">• PETG or ASA printed bezel, segmented with max printed part length ≤10in; black, removable, magnet-attached or screw-attached to exposed margin</text>

    <text x="850" y="32" class="small">Power / signal</text>
    <text x="850" y="58" class="tiny">• 4 × Mean Well LRS-350-5 or equivalent 5V 60A supplies; 3 is the strict minimum (~173A max load) but leaves only ~7A headroom</text>
    <text x="850" y="80" class="tiny">• 30 × HUB75 16-pin IDC ribbon cables, one panel-to-panel/controller cable per module position; order extras in short lengths</text>
    <text x="850" y="102" class="tiny">• 30 × 5V panel power pigtails/cables, one per panel; avoid relying on high-current daisy chains</text>
    <text x="850" y="124" class="tiny">• 1 × surge protector or switched/fused AC power strip rated for total AC load; use grounded mains wiring and strain relief</text>
    <text x="850" y="146" class="tiny">• DC distribution: fused distribution blocks or busbar + fuse block per PSU zone; split into 4 zones (9/6/9/6 panels)</text>
    <text x="850" y="168" class="tiny">• Suggested fusing: one fuse per panel or small group; size based on wire gauge and branch load, not just panel max draw</text>
    <text x="850" y="190" class="tiny">• Wire: short 5V/GND branches sized for current and voltage drop; common ground across PSUs, do not tie +5V outputs together directly</text>

    <text x="20" y="304" class="small">Notes</text>
    <text x="20" y="330" class="tiny">• Vendor listing specs: 256×128mm, 128×64 px, P2, 1/32 scan, 5V, ICN6373C + ICN32019. Confirm HUB75E pinout, max watts, and M3/M4 insert size with seller.</text>
    <text x="20" y="352" class="tiny">• Magnetic screw standoff target: 15mm unless one-panel test shows lower profile clears ribs/connectors and cable bend radius.</text>
    <text x="20" y="374" class="tiny">• Steel strips extend ~25–40mm past the panel array top and bottom into the bezel margins for magnetic bezel attachment; sides get separate landing plates.</text>
  </g>

  <!-- Legend -->
  <g transform="translate(50 1935)">
    <rect x="0" y="-28" width="1400" height="42" fill="#f8fafc" stroke="#cbd5e1" rx="8"/>
    <rect class="panel" x="16" y="-18" width="24" height="16"/><text x="48" y="-5" class="tiny">LED module</text>
    <rect class="bezel" x="145" y="-18" width="24" height="16"/><text x="178" y="-5" class="tiny">removable PETG bezel</text>
    <rect class="steel" x="315" y="-18" width="24" height="16"/><text x="348" y="-5" class="tiny">mild steel magnet strip</text>
    <rect class="backer" x="505" y="-18" width="24" height="16"/><text x="538" y="-5" class="tiny">rigid backer board</text>
    <rect class="psu" x="675" y="-18" width="28" height="16"/><text x="713" y="-5" class="tiny">5V 60A PSU</text>
    <rect class="fuse" x="825" y="-18" width="28" height="16"/><text x="863" y="-5" class="tiny">fused distribution</text>
    <line class="ribbon" x1="1010" y1="-10" x2="1050" y2="-10"/><text x="1058" y="-5" class="tiny">HUB75 signal</text>
    <line class="power" x1="1145" y1="-10" x2="1185" y2="-10"/><text x="1193" y="-5" class="tiny">+5V branch</text>
    <line class="ground" x1="1280" y1="-10" x2="1320" y2="-10"/><text x="1328" y="-5" class="tiny">ground</text>
  </g>
</svg>
