<svg xmlns="http://www.w3.org/2000/svg" width="1700" height="1960" viewBox="0 0 1700 1960" role="img" aria-labelledby="title desc">
  <title id="title">36 Panel HUB75 LED Wall Build Schematic</title>
  <desc id="desc">Schematic showing 36 HUB75 RGB LED panels in a 6 by 6 array mounted with magnetic screws to steel strips on a rigid backer board, with vertical steel strips, a symmetric front-removable PETG bezel, rear-mounted 5V power supplies, fused distribution, and Raspberry Pi HUB75 signal chains.</desc>
  <defs>
    <style>
      .title { font: 700 28px system-ui, -apple-system, BlinkMacSystemFont, "Segoe UI", sans-serif; fill: #111827; }
      .subtitle { font: 500 15px system-ui, -apple-system, BlinkMacSystemFont, "Segoe UI", sans-serif; fill: #374151; }
      .label { font: 600 14px system-ui, -apple-system, BlinkMacSystemFont, "Segoe UI", sans-serif; fill: #111827; }
      .small { font: 500 12px system-ui, -apple-system, BlinkMacSystemFont, "Segoe UI", sans-serif; fill: #374151; }
      .tiny { font: 500 10px system-ui, -apple-system, BlinkMacSystemFont, "Segoe UI", sans-serif; fill: #374151; }
      .panel { fill: #111827; stroke: #64748b; stroke-width: 1.4; }
      .pixel { fill: #1f2937; opacity: 0.8; }
      .seam { stroke: #94a3b8; stroke-width: 1; }
      .backer { fill: #d9b98f; stroke: #8b5e34; stroke-width: 2; }
      .steel { fill: #cbd5e1; stroke: #475569; stroke-width: 1.8; }
      .bezel { fill: #020617; stroke: #334155; stroke-width: 1.5; }
      .stop { fill: #f59e0b; stroke: #92400e; stroke-width: 1.5; }
      .psu { fill: #e5e7eb; stroke: #374151; stroke-width: 2; }
      .fuse { fill: #fee2e2; stroke: #b91c1c; stroke-width: 1.5; }
      .pi { fill: #dcfce7; stroke: #15803d; stroke-width: 2; }
      .slot { fill: #ffffff; stroke: #92400e; stroke-width: 1.5; }
      .screw { fill: #94a3b8; stroke: #334155; stroke-width: 1.5; }
      .insert { fill: #fcd34d; stroke: #92400e; stroke-width: 1.5; }
      .leader { fill: none; stroke: #64748b; stroke-width: 1.25; stroke-dasharray: 4 4; }
      .ribbon { fill: none; stroke: #2563eb; stroke-width: 3; stroke-linecap: round; stroke-linejoin: round; }
      .power { fill: none; stroke: #dc2626; stroke-width: 3; stroke-linecap: round; stroke-linejoin: round; }
      .ground { fill: none; stroke: #111827; stroke-width: 2.5; stroke-linecap: round; stroke-linejoin: round; }
      .dim { stroke: #475569; stroke-width: 1.5; marker-start: url(#arrow); marker-end: url(#arrow); }
      .callout { fill: #f8fafc; stroke: #cbd5e1; stroke-width: 1.5; rx: 10; }
    </style>
    <marker id="arrow" markerWidth="8" markerHeight="8" refX="4" refY="4" orient="auto">
      <path d="M0,0 L8,4 L0,8 Z" fill="#475569"/>
    </marker>
  </defs>

  <rect width="1700" height="1960" fill="#ffffff"/>
  <text x="50" y="50" class="title">36-Panel HUB75 Wall Build Schematic</text>
  <text x="50" y="78" class="subtitle">6×6 array, 6.30 ft × 3.15 ft, 768×384 px, magnetic screws on steel strips, symmetric removable PETG bezel on backer margin, rear-mounted power/controller</text>

  <!-- Front view -->
  <text x="50" y="125" class="label">Front View: Scaled Symmetric Bezel Around 6×6 Panel Array</text>
  <text x="50" y="147" class="small">Panels: 1920 mm × 960 mm. Bezel shown at ~30 mm wide: visible, removable, and mounted to exposed backer margin.</text>

  <g transform="translate(50 175)">
    <!-- Scale: 600 x 300 panel array represents 1920 x 960 mm; 9.4 units ~= 30 mm bezel width. -->
    <rect x="-28" y="-28" width="656" height="356" class="backer" rx="8" opacity="0.45"/>
    <rect x="-10" y="-10" width="620" height="320" class="bezel" rx="8"/>
    <rect x="0" y="0" width="600" height="300" fill="#ffffff"/>
    <g id="front-panels">
      <!-- 6 x 6 panels, each 100 x 50 schematic units -->
      <rect class="panel" x="0" y="0" width="100" height="50"/><rect class="panel" x="100" y="0" width="100" height="50"/><rect class="panel" x="200" y="0" width="100" height="50"/><rect class="panel" x="300" y="0" width="100" height="50"/><rect class="panel" x="400" y="0" width="100" height="50"/><rect class="panel" x="500" y="0" width="100" height="50"/>
      <rect class="panel" x="0" y="50" width="100" height="50"/><rect class="panel" x="100" y="50" width="100" height="50"/><rect class="panel" x="200" y="50" width="100" height="50"/><rect class="panel" x="300" y="50" width="100" height="50"/><rect class="panel" x="400" y="50" width="100" height="50"/><rect class="panel" x="500" y="50" width="100" height="50"/>
      <rect class="panel" x="0" y="100" width="100" height="50"/><rect class="panel" x="100" y="100" width="100" height="50"/><rect class="panel" x="200" y="100" width="100" height="50"/><rect class="panel" x="300" y="100" width="100" height="50"/><rect class="panel" x="400" y="100" width="100" height="50"/><rect class="panel" x="500" y="100" width="100" height="50"/>
      <rect class="panel" x="0" y="150" width="100" height="50"/><rect class="panel" x="100" y="150" width="100" height="50"/><rect class="panel" x="200" y="150" width="100" height="50"/><rect class="panel" x="300" y="150" width="100" height="50"/><rect class="panel" x="400" y="150" width="100" height="50"/><rect class="panel" x="500" y="150" width="100" height="50"/>
      <rect class="panel" x="0" y="200" width="100" height="50"/><rect class="panel" x="100" y="200" width="100" height="50"/><rect class="panel" x="200" y="200" width="100" height="50"/><rect class="panel" x="300" y="200" width="100" height="50"/><rect class="panel" x="400" y="200" width="100" height="50"/><rect class="panel" x="500" y="200" width="100" height="50"/>
      <rect class="panel" x="0" y="250" width="100" height="50"/><rect class="panel" x="100" y="250" width="100" height="50"/><rect class="panel" x="200" y="250" width="100" height="50"/><rect class="panel" x="300" y="250" width="100" height="50"/><rect class="panel" x="400" y="250" width="100" height="50"/><rect class="panel" x="500" y="250" width="100" height="50"/>
      <line class="seam" x1="100" y1="0" x2="100" y2="300"/><line class="seam" x1="200" y1="0" x2="200" y2="300"/><line class="seam" x1="300" y1="0" x2="300" y2="300"/><line class="seam" x1="400" y1="0" x2="400" y2="300"/><line class="seam" x1="500" y1="0" x2="500" y2="300"/>
      <line class="seam" x1="0" y1="50" x2="600" y2="50"/><line class="seam" x1="0" y1="100" x2="600" y2="100"/><line class="seam" x1="0" y1="150" x2="600" y2="150"/><line class="seam" x1="0" y1="200" x2="600" y2="200"/><line class="seam" x1="0" y1="250" x2="600" y2="250"/>
    </g>
    <!-- Exposed front screws in bezel/backer margin; removable without removing panels. -->
    <circle class="screw" cx="45" cy="-18" r="4"/><circle class="screw" cx="180" cy="-18" r="4"/><circle class="screw" cx="315" cy="-18" r="4"/><circle class="screw" cx="450" cy="-18" r="4"/><circle class="screw" cx="585" cy="-18" r="4"/>
    <circle class="screw" cx="45" cy="318" r="4"/><circle class="screw" cx="180" cy="318" r="4"/><circle class="screw" cx="315" cy="318" r="4"/><circle class="screw" cx="450" cy="318" r="4"/><circle class="screw" cx="585" cy="318" r="4"/>
    <circle class="screw" cx="-18" cy="38" r="4"/><circle class="screw" cx="-18" cy="150" r="4"/><circle class="screw" cx="-18" cy="262" r="4"/>
    <circle class="screw" cx="618" cy="38" r="4"/><circle class="screw" cx="618" cy="150" r="4"/><circle class="screw" cx="618" cy="262" r="4"/>
    <line class="dim" x1="0" y1="350" x2="600" y2="350"/>
    <text x="235" y="375" class="small">6.30 ft / 75.59 in panel array</text>
    <line class="dim" x1="650" y1="0" x2="650" y2="300"/>
    <text x="662" y="155" class="small" transform="rotate(90 662 155)">3.15 ft / 37.80 in panel array</text>
    <text x="-24" y="-40" class="tiny">Backer extends beyond panels; bezel screws into exposed margin.</text>
  </g>

  <!-- Backer and steel strip plan -->
  <text x="760" y="125" class="label">Backer Plan: Vertical Steel Strips</text>
  <text x="760" y="147" class="small">This is the backer/front-face plan before panels are installed. Steel strips run top-to-bottom along panel-column edges.</text>
  <g transform="translate(760 180)">
    <rect class="callout" x="-15" y="-15" width="830" height="330"/>
    <rect class="backer" x="0" y="0" width="760" height="300" rx="8" opacity="0.55"/>
    <rect x="60" y="30" width="600" height="240" fill="#fff7ed" stroke="#8b5e34" stroke-width="1.5"/>
    <text x="64" y="23" class="tiny">panel array footprint</text>

    <!-- Seven vertical steel strips: left edge, five shared column seams, right edge. -->
    <rect class="steel" x="60" y="30" width="18" height="240" rx="2"/>
    <rect class="steel" x="150" y="30" width="18" height="240" rx="2"/>
    <rect class="steel" x="250" y="30" width="18" height="240" rx="2"/>
    <rect class="steel" x="350" y="30" width="18" height="240" rx="2"/>
    <rect class="steel" x="450" y="30" width="18" height="240" rx="2"/>
    <rect class="steel" x="550" y="30" width="18" height="240" rx="2"/>
    <rect class="steel" x="642" y="30" width="18" height="240" rx="2"/>

    <!-- Panel grid overlay -->
    <line class="seam" x1="160" y1="30" x2="160" y2="270"/><line class="seam" x1="260" y1="30" x2="260" y2="270"/><line class="seam" x1="360" y1="30" x2="360" y2="270"/><line class="seam" x1="460" y1="30" x2="460" y2="270"/><line class="seam" x1="560" y1="30" x2="560" y2="270"/>
    <line class="seam" x1="60" y1="70" x2="660" y2="70"/><line class="seam" x1="60" y1="110" x2="660" y2="110"/><line class="seam" x1="60" y1="150" x2="660" y2="150"/><line class="seam" x1="60" y1="190" x2="660" y2="190"/><line class="seam" x1="60" y1="230" x2="660" y2="230"/>

    <!-- Bezel screw inserts around exposed backer margin. -->
    <circle class="insert" cx="110" cy="12" r="5"/><circle class="insert" cx="230" cy="12" r="5"/><circle class="insert" cx="350" cy="12" r="5"/><circle class="insert" cx="470" cy="12" r="5"/><circle class="insert" cx="590" cy="12" r="5"/>
    <circle class="insert" cx="110" cy="288" r="5"/><circle class="insert" cx="230" cy="288" r="5"/><circle class="insert" cx="350" cy="288" r="5"/><circle class="insert" cx="470" cy="288" r="5"/><circle class="insert" cx="590" cy="288" r="5"/>
    <circle class="insert" cx="24" cy="70" r="5"/><circle class="insert" cx="24" cy="150" r="5"/><circle class="insert" cx="24" cy="230" r="5"/>
    <circle class="insert" cx="696" cy="70" r="5"/><circle class="insert" cx="696" cy="150" r="5"/><circle class="insert" cx="696" cy="230" r="5"/>
    <text x="0" y="322" class="tiny">Steel strips are vertical. Bezel threaded inserts are outside the panel footprint on the exposed backer margin.</text>
  </g>

  <!-- Depth cross-section -->
  <text x="50" y="545" class="label">Depth Cross-Section: Panel, Magnet, Steel, Backer, PETG Bezel</text>
  <text x="50" y="570" class="small">Cut through the left outside edge. Front is left; wall/backer is right. The bezel is a Z/L profile screwed into the backer margin.</text>
  <g transform="translate(50 605)">
    <rect class="callout" x="0" y="0" width="1500" height="305"/>

    <g transform="translate(40 45)">
      <text x="0" y="0" class="small">True edge cross-section</text>
      <text x="0" y="22" class="tiny">Front/viewer side ← left; rear/wall side → right.</text>

      <!-- Structural backer as rear plane -->
      <rect class="backer" x="480" y="30" width="72" height="190" rx="3"/>
      <text x="472" y="242" class="tiny">backer</text>

      <!-- Horizontal steel strip appears as a short cross-section on the backer face behind panel area. -->
      <rect class="steel" x="430" y="80" width="45" height="26" rx="2"/>
      <text x="392" y="126" class="tiny">steel strip cross-section</text>

      <!-- Panel is in front of strip; magnet bridges to steel. -->
      <rect class="panel" x="185" y="68" width="190" height="78" rx="4"/>
      <text x="236" y="112" fill="#e5e7eb" font-size="12" font-weight="700">panel body</text>
      <circle class="insert" cx="385" cy="94" r="13"/>
      <line x1="375" y1="94" x2="430" y2="94" stroke="#92400e" stroke-width="5"/>
      <text x="335" y="58" class="tiny">magnetic screw</text>

      <!-- Exposed margin is backer area outside panel footprint. -->
      <rect x="480" y="150" width="72" height="52" fill="#fef3c7" stroke="#8b5e34" stroke-dasharray="5 4"/>
      <text x="388" y="182" class="tiny">exposed backer margin</text>
      <line class="leader" x1="475" y1="176" x2="552" y2="176"/>

      <!-- PETG bezel Z/L profile. It has front lip overlapping panel edge and rear flange screwed to backer margin. -->
      <path class="bezel" d="M120 52 H224 V78 H185 V148 H120 Z M120 148 H492 V202 H120 Z" fill-rule="evenodd"/>
      <rect class="slot" x="405" y="169" width="44" height="12" rx="6"/>
      <circle class="screw" cx="427" cy="175" r="6"/>
      <line class="leader" x1="427" y1="175" x2="514" y2="176"/>
      <circle class="insert" cx="514" cy="176" r="9"/>

      <line class="dim" x1="176" y1="38" x2="185" y2="38"/>
      <text x="130" y="34" class="tiny">2-3mm overlap on edge only</text>
      <text x="0" y="270" class="tiny">Bezel screws are accessible from the front. Remove bezel segment first, then pull edge panel off magnets.</text>
    </g>

    <g transform="translate(730 45)">
      <text x="0" y="0" class="small">Bezel material and segmentation</text>
      <rect class="bezel" x="0" y="36" width="290" height="24" rx="5"/>
      <line x1="95" y1="36" x2="95" y2="60" stroke="#64748b" stroke-width="2"/>
      <line x1="195" y1="36" x2="195" y2="60" stroke="#64748b" stroke-width="2"/>
      <text x="0" y="88" class="tiny">Use black PETG/ASA segments with the same profile on all sides.</text>
      <text x="0" y="112" class="tiny">Use slotted screw holes for 1-2mm adjustment.</text>
      <text x="0" y="136" class="tiny">Backer margin target: 25-40mm outside panel array.</text>
      <text x="0" y="160" class="tiny">Visible bezel width target: 20-30mm.</text>
      <text x="0" y="184" class="tiny">Do not hide screws behind panels; screws must be front-removable.</text>
    </g>

    <g transform="translate(1120 45)">
      <text x="0" y="0" class="small">Service sequence</text>
      <text x="0" y="38" class="tiny">1. Remove the needed bezel segment from the front.</text>
      <text x="0" y="68" class="tiny">2. Pull the edge panel off magnetic screws.</text>
      <text x="0" y="98" class="tiny">3. Disconnect power and HUB75 cables.</text>
      <text x="0" y="128" class="tiny">4. Reinstall panel; magnets reseat against steel strips.</text>
      <text x="0" y="158" class="tiny">5. Reinstall bezel segment with slotted adjustment.</text>
    </g>
  </g>

  <!-- Rear view -->
  <text x="50" y="1005" class="label">Rear View: Power Zones, Data Chains, and Mounting Pattern</text>
  <text x="50" y="1027" class="small">Four 60A supplies feed four 3×3 quadrants. Grounds are common; +5V stays separated by zone unless using current-sharing hardware.</text>

  <g transform="translate(50 1065)">
    <rect class="backer" x="-18" y="-18" width="636" height="336" rx="8"/>
    <!-- rear panel outlines -->
    <g opacity="0.55">
      <rect fill="#fef3c7" stroke="#92400e" x="0" y="0" width="600" height="300"/>
      <!-- Vertical 2 inch steel strips. 2 in / 12.60 in panel width ~= 16% of one panel column. -->
      <rect class="steel" x="0" y="0" width="18" height="300" opacity="0.9"/>
      <rect class="steel" x="92" y="0" width="18" height="300" opacity="0.9"/>
      <rect class="steel" x="192" y="0" width="18" height="300" opacity="0.9"/>
      <rect class="steel" x="292" y="0" width="18" height="300" opacity="0.9"/>
      <rect class="steel" x="392" y="0" width="18" height="300" opacity="0.9"/>
      <rect class="steel" x="492" y="0" width="18" height="300" opacity="0.9"/>
      <rect class="steel" x="582" y="0" width="18" height="300" opacity="0.9"/>
      <line class="seam" x1="100" y1="0" x2="100" y2="300"/><line class="seam" x1="200" y1="0" x2="200" y2="300"/><line class="seam" x1="300" y1="0" x2="300" y2="300"/><line class="seam" x1="400" y1="0" x2="400" y2="300"/><line class="seam" x1="500" y1="0" x2="500" y2="300"/>
      <line class="seam" x1="0" y1="50" x2="600" y2="50"/><line class="seam" x1="0" y1="100" x2="600" y2="100"/><line class="seam" x1="0" y1="150" x2="600" y2="150"/><line class="seam" x1="0" y1="200" x2="600" y2="200"/><line class="seam" x1="0" y1="250" x2="600" y2="250"/>
    </g>

    <!-- magnet screw landing points: four per panel, aligned to vertical steel strips -->
    <g>
      <circle class="insert" cx="8" cy="15" r="3.6"/>
      <circle class="insert" cx="8" cy="35" r="3.6"/>
      <circle class="insert" cx="92" cy="15" r="3.6"/>
      <circle class="insert" cx="92" cy="35" r="3.6"/>
      <circle class="insert" cx="108" cy="15" r="3.6"/>
      <circle class="insert" cx="108" cy="35" r="3.6"/>
      <circle class="insert" cx="192" cy="15" r="3.6"/>
      <circle class="insert" cx="192" cy="35" r="3.6"/>
      <circle class="insert" cx="208" cy="15" r="3.6"/>
      <circle class="insert" cx="208" cy="35" r="3.6"/>
      <circle class="insert" cx="292" cy="15" r="3.6"/>
      <circle class="insert" cx="292" cy="35" r="3.6"/>
      <circle class="insert" cx="308" cy="15" r="3.6"/>
      <circle class="insert" cx="308" cy="35" r="3.6"/>
      <circle class="insert" cx="392" cy="15" r="3.6"/>
      <circle class="insert" cx="392" cy="35" r="3.6"/>
      <circle class="insert" cx="408" cy="15" r="3.6"/>
      <circle class="insert" cx="408" cy="35" r="3.6"/>
      <circle class="insert" cx="492" cy="15" r="3.6"/>
      <circle class="insert" cx="492" cy="35" r="3.6"/>
      <circle class="insert" cx="508" cy="15" r="3.6"/>
      <circle class="insert" cx="508" cy="35" r="3.6"/>
      <circle class="insert" cx="592" cy="15" r="3.6"/>
      <circle class="insert" cx="592" cy="35" r="3.6"/>
      <circle class="insert" cx="8" cy="65" r="3.6"/>
      <circle class="insert" cx="8" cy="85" r="3.6"/>
      <circle class="insert" cx="92" cy="65" r="3.6"/>
      <circle class="insert" cx="92" cy="85" r="3.6"/>
      <circle class="insert" cx="108" cy="65" r="3.6"/>
      <circle class="insert" cx="108" cy="85" r="3.6"/>
      <circle class="insert" cx="192" cy="65" r="3.6"/>
      <circle class="insert" cx="192" cy="85" r="3.6"/>
      <circle class="insert" cx="208" cy="65" r="3.6"/>
      <circle class="insert" cx="208" cy="85" r="3.6"/>
      <circle class="insert" cx="292" cy="65" r="3.6"/>
      <circle class="insert" cx="292" cy="85" r="3.6"/>
      <circle class="insert" cx="308" cy="65" r="3.6"/>
      <circle class="insert" cx="308" cy="85" r="3.6"/>
      <circle class="insert" cx="392" cy="65" r="3.6"/>
      <circle class="insert" cx="392" cy="85" r="3.6"/>
      <circle class="insert" cx="408" cy="65" r="3.6"/>
      <circle class="insert" cx="408" cy="85" r="3.6"/>
      <circle class="insert" cx="492" cy="65" r="3.6"/>
      <circle class="insert" cx="492" cy="85" r="3.6"/>
      <circle class="insert" cx="508" cy="65" r="3.6"/>
      <circle class="insert" cx="508" cy="85" r="3.6"/>
      <circle class="insert" cx="592" cy="65" r="3.6"/>
      <circle class="insert" cx="592" cy="85" r="3.6"/>
      <circle class="insert" cx="8" cy="115" r="3.6"/>
      <circle class="insert" cx="8" cy="135" r="3.6"/>
      <circle class="insert" cx="92" cy="115" r="3.6"/>
      <circle class="insert" cx="92" cy="135" r="3.6"/>
      <circle class="insert" cx="108" cy="115" r="3.6"/>
      <circle class="insert" cx="108" cy="135" r="3.6"/>
      <circle class="insert" cx="192" cy="115" r="3.6"/>
      <circle class="insert" cx="192" cy="135" r="3.6"/>
      <circle class="insert" cx="208" cy="115" r="3.6"/>
      <circle class="insert" cx="208" cy="135" r="3.6"/>
      <circle class="insert" cx="292" cy="115" r="3.6"/>
      <circle class="insert" cx="292" cy="135" r="3.6"/>
      <circle class="insert" cx="308" cy="115" r="3.6"/>
      <circle class="insert" cx="308" cy="135" r="3.6"/>
      <circle class="insert" cx="392" cy="115" r="3.6"/>
      <circle class="insert" cx="392" cy="135" r="3.6"/>
      <circle class="insert" cx="408" cy="115" r="3.6"/>
      <circle class="insert" cx="408" cy="135" r="3.6"/>
      <circle class="insert" cx="492" cy="115" r="3.6"/>
      <circle class="insert" cx="492" cy="135" r="3.6"/>
      <circle class="insert" cx="508" cy="115" r="3.6"/>
      <circle class="insert" cx="508" cy="135" r="3.6"/>
      <circle class="insert" cx="592" cy="115" r="3.6"/>
      <circle class="insert" cx="592" cy="135" r="3.6"/>
      <circle class="insert" cx="8" cy="165" r="3.6"/>
      <circle class="insert" cx="8" cy="185" r="3.6"/>
      <circle class="insert" cx="92" cy="165" r="3.6"/>
      <circle class="insert" cx="92" cy="185" r="3.6"/>
      <circle class="insert" cx="108" cy="165" r="3.6"/>
      <circle class="insert" cx="108" cy="185" r="3.6"/>
      <circle class="insert" cx="192" cy="165" r="3.6"/>
      <circle class="insert" cx="192" cy="185" r="3.6"/>
      <circle class="insert" cx="208" cy="165" r="3.6"/>
      <circle class="insert" cx="208" cy="185" r="3.6"/>
      <circle class="insert" cx="292" cy="165" r="3.6"/>
      <circle class="insert" cx="292" cy="185" r="3.6"/>
      <circle class="insert" cx="308" cy="165" r="3.6"/>
      <circle class="insert" cx="308" cy="185" r="3.6"/>
      <circle class="insert" cx="392" cy="165" r="3.6"/>
      <circle class="insert" cx="392" cy="185" r="3.6"/>
      <circle class="insert" cx="408" cy="165" r="3.6"/>
      <circle class="insert" cx="408" cy="185" r="3.6"/>
      <circle class="insert" cx="492" cy="165" r="3.6"/>
      <circle class="insert" cx="492" cy="185" r="3.6"/>
      <circle class="insert" cx="508" cy="165" r="3.6"/>
      <circle class="insert" cx="508" cy="185" r="3.6"/>
      <circle class="insert" cx="592" cy="165" r="3.6"/>
      <circle class="insert" cx="592" cy="185" r="3.6"/>
      <circle class="insert" cx="8" cy="215" r="3.6"/>
      <circle class="insert" cx="8" cy="235" r="3.6"/>
      <circle class="insert" cx="92" cy="215" r="3.6"/>
      <circle class="insert" cx="92" cy="235" r="3.6"/>
      <circle class="insert" cx="108" cy="215" r="3.6"/>
      <circle class="insert" cx="108" cy="235" r="3.6"/>
      <circle class="insert" cx="192" cy="215" r="3.6"/>
      <circle class="insert" cx="192" cy="235" r="3.6"/>
      <circle class="insert" cx="208" cy="215" r="3.6"/>
      <circle class="insert" cx="208" cy="235" r="3.6"/>
      <circle class="insert" cx="292" cy="215" r="3.6"/>
      <circle class="insert" cx="292" cy="235" r="3.6"/>
      <circle class="insert" cx="308" cy="215" r="3.6"/>
      <circle class="insert" cx="308" cy="235" r="3.6"/>
      <circle class="insert" cx="392" cy="215" r="3.6"/>
      <circle class="insert" cx="392" cy="235" r="3.6"/>
      <circle class="insert" cx="408" cy="215" r="3.6"/>
      <circle class="insert" cx="408" cy="235" r="3.6"/>
      <circle class="insert" cx="492" cy="215" r="3.6"/>
      <circle class="insert" cx="492" cy="235" r="3.6"/>
      <circle class="insert" cx="508" cy="215" r="3.6"/>
      <circle class="insert" cx="508" cy="235" r="3.6"/>
      <circle class="insert" cx="592" cy="215" r="3.6"/>
      <circle class="insert" cx="592" cy="235" r="3.6"/>
      <circle class="insert" cx="8" cy="265" r="3.6"/>
      <circle class="insert" cx="8" cy="285" r="3.6"/>
      <circle class="insert" cx="92" cy="265" r="3.6"/>
      <circle class="insert" cx="92" cy="285" r="3.6"/>
      <circle class="insert" cx="108" cy="265" r="3.6"/>
      <circle class="insert" cx="108" cy="285" r="3.6"/>
      <circle class="insert" cx="192" cy="265" r="3.6"/>
      <circle class="insert" cx="192" cy="285" r="3.6"/>
      <circle class="insert" cx="208" cy="265" r="3.6"/>
      <circle class="insert" cx="208" cy="285" r="3.6"/>
      <circle class="insert" cx="292" cy="265" r="3.6"/>
      <circle class="insert" cx="292" cy="285" r="3.6"/>
      <circle class="insert" cx="308" cy="265" r="3.6"/>
      <circle class="insert" cx="308" cy="285" r="3.6"/>
      <circle class="insert" cx="392" cy="265" r="3.6"/>
      <circle class="insert" cx="392" cy="285" r="3.6"/>
      <circle class="insert" cx="408" cy="265" r="3.6"/>
      <circle class="insert" cx="408" cy="285" r="3.6"/>
      <circle class="insert" cx="492" cy="265" r="3.6"/>
      <circle class="insert" cx="492" cy="285" r="3.6"/>
      <circle class="insert" cx="508" cy="265" r="3.6"/>
      <circle class="insert" cx="508" cy="285" r="3.6"/>
      <circle class="insert" cx="592" cy="265" r="3.6"/>
      <circle class="insert" cx="592" cy="285" r="3.6"/>
    </g>

    <text x="12" y="316" class="tiny">Steel strip plan: 7 vertical strips total: left edge, 5 shared column seams, right edge. Use 2&quot; wide if available, 1.5&quot; minimum.</text>

    <!-- quadrant labels -->
    <rect x="14" y="14" width="272" height="122" fill="none" stroke="#dc2626" stroke-width="2" stroke-dasharray="6 6"/>
    <rect x="314" y="14" width="272" height="122" fill="none" stroke="#dc2626" stroke-width="2" stroke-dasharray="6 6"/>
    <rect x="14" y="164" width="272" height="122" fill="none" stroke="#dc2626" stroke-width="2" stroke-dasharray="6 6"/>
    <rect x="314" y="164" width="272" height="122" fill="none" stroke="#dc2626" stroke-width="2" stroke-dasharray="6 6"/>
    <text x="24" y="34" class="tiny">PSU 1 zone: 9 panels / ~52A max</text>
    <text x="324" y="34" class="tiny">PSU 2 zone: 9 panels / ~52A max</text>
    <text x="24" y="184" class="tiny">PSU 3 zone: 9 panels / ~52A max</text>
    <text x="324" y="184" class="tiny">PSU 4 zone: 9 panels / ~52A max</text>
  </g>

  <!-- Rear electronics detail -->
  <g transform="translate(845 1065)">
    <rect class="callout" x="-18" y="-18" width="605" height="336"/>
    <text x="0" y="5" class="label">Rear Electronics Layout</text>
    <rect class="pi" x="15" y="35" width="150" height="70" rx="8"/>
    <text x="34" y="64" class="small">Raspberry Pi 5</text>
    <text x="34" y="84" class="tiny">active-3 HUB75 adapter</text>

    <rect class="psu" x="310" y="28" width="110" height="48" rx="5"/><text x="335" y="57" class="small">PSU 1</text>
    <rect class="psu" x="450" y="28" width="110" height="48" rx="5"/><text x="475" y="57" class="small">PSU 2</text>
    <rect class="psu" x="310" y="210" width="110" height="48" rx="5"/><text x="335" y="239" class="small">PSU 3</text>
    <rect class="psu" x="450" y="210" width="110" height="48" rx="5"/><text x="475" y="239" class="small">PSU 4</text>

    <rect class="fuse" x="303" y="95" width="124" height="40" rx="4"/><text x="323" y="120" class="tiny">fused 5V distro</text>
    <rect class="fuse" x="443" y="95" width="124" height="40" rx="4"/><text x="463" y="120" class="tiny">fused 5V distro</text>
    <rect class="fuse" x="303" y="160" width="124" height="40" rx="4"/><text x="323" y="185" class="tiny">fused 5V distro</text>
    <rect class="fuse" x="443" y="160" width="124" height="40" rx="4"/><text x="463" y="185" class="tiny">fused 5V distro</text>

    <!-- power lines -->
    <line class="power" x1="365" y1="76" x2="365" y2="95"/>
    <line class="power" x1="505" y1="76" x2="505" y2="95"/>
    <line class="power" x1="365" y1="210" x2="365" y2="200"/>
    <line class="power" x1="505" y1="210" x2="505" y2="200"/>
    <line class="ground" x1="365" y1="258" x2="505" y2="258"/>
    <line class="ground" x1="90" y1="105" x2="90" y2="285"/>
    <line class="ground" x1="90" y1="285" x2="505" y2="285"/>
    <text x="108" y="282" class="tiny">common ground bus</text>

    <!-- data chains -->
    <path class="ribbon" d="M165 50 C210 50, 210 35, 250 35 H285"/>
    <path class="ribbon" d="M165 70 C220 70, 220 150, 285 150"/>
    <path class="ribbon" d="M165 90 C210 90, 210 270, 285 270"/>
    <text x="192" y="29" class="tiny">HUB75 OUT1 → rows 1-2</text>
    <text x="192" y="145" class="tiny">HUB75 OUT2 → rows 3-4</text>
    <text x="192" y="266" class="tiny">HUB75 OUT3 → rows 5-6</text>

    <rect x="18" y="132" width="240" height="84" fill="#eff6ff" stroke="#93c5fd" rx="8"/>
    <text x="32" y="154" class="small">Data chain plan</text>
    <text x="32" y="174" class="tiny">3 parallel chains × 12 panels each</text>
    <text x="32" y="192" class="tiny">Snake each chain across two rows</text>
    <text x="32" y="210" class="tiny">Ribbon cables carry signal only</text>
  </g>

  <!-- Bill of materials -->
  <text x="50" y="1435" class="label">Bill of Materials / Planning Quantities</text>
  <g transform="translate(50 1460)">
    <rect class="callout" x="0" y="0" width="1550" height="390"/>
    <text x="20" y="32" class="small">Core display</text>
    <text x="20" y="58" class="tiny">• 36 × P2.5 indoor HUB75/HUB75E RGB panels, 320mm × 160mm each, 128×64 px each</text>
    <text x="20" y="80" class="tiny">• Total 6×6 panel array: 1920mm × 960mm / 75.59in × 37.80in / 6.30ft × 3.15ft, 768×384 px (current wall: 42in × 25in)</text>
    <text x="20" y="102" class="tiny">• 144 × M3/M4 LED-module magnetic screws, 15mm standoff height, 4 per panel; confirm M3 vs M4 and thread depth before bulk order</text>

    <text x="20" y="140" class="small">Mounting / enclosure</text>
    <text x="20" y="166" class="tiny">• 1 × 1/2&quot; plywood or MDF backer, approx 2000mm × 1040mm target to allow 25–40mm bezel/backer margin around panel array</text>
    <text x="20" y="188" class="tiny">• Rear stiffness/wall standoff frame: 1×2 lumber, plywood ribs, or 2020 extrusion; provides cleat mount, airflow, and PSU clearance</text>
    <text x="20" y="210" class="tiny">• 7 × vertical mild-steel strips, 1/16&quot; thick, 1.5–2&quot; wide preferred; each approx 1020–1040mm long</text>
    <text x="20" y="232" class="tiny">• Steel total length: 7 × 1040mm = 7280mm / 7.28m / 23.9ft; buy three 8ft strips minimum, four for mistakes/extra landing plates</text>
    <text x="20" y="254" class="tiny">• PETG or ASA printed bezel, segmented with max printed part length ≤10in; black, removable, magnet-attached or screw-attached to exposed margin</text>

    <text x="850" y="32" class="small">Power / signal</text>
    <text x="850" y="58" class="tiny">• 4 × Mean Well LRS-350-5 or equivalent 5V 60A supplies minimum; 5 recommended if budget allows for derating/spare capacity</text>
    <text x="850" y="80" class="tiny">• 36 × HUB75 16-pin IDC ribbon cables, one panel-to-panel/controller cable per module position; order extras in short lengths</text>
    <text x="850" y="102" class="tiny">• 36 × 5V panel power pigtails/cables, one per panel; avoid relying on high-current daisy chains</text>
    <text x="850" y="124" class="tiny">• 1 × surge protector or switched/fused AC power strip rated for total AC load; use grounded mains wiring and strain relief</text>
    <text x="850" y="146" class="tiny">• DC distribution: fused distribution blocks or busbar + fuse block per PSU zone; split into 4 zones of 9 panels</text>
    <text x="850" y="168" class="tiny">• Suggested fusing: one fuse per panel or small group; size based on wire gauge and branch load, not just panel max draw</text>
    <text x="850" y="190" class="tiny">• Wire: short 5V/GND branches sized for current and voltage drop; common ground across PSUs, do not tie +5V outputs together directly</text>

    <text x="20" y="304" class="small">Notes</text>
    <text x="20" y="330" class="tiny">• Alibaba listing visible specs: 320×160mm, 128×64 px, P2.5, 32scan, 5V, 0.500kg gross each. Confirm HUB75E pinout, max watts, and M3/M4 insert size with seller.</text>
    <text x="20" y="352" class="tiny">• Magnetic screw standoff target: 15mm unless one-panel test shows lower profile clears ribs/connectors and cable bend radius.</text>
    <text x="20" y="374" class="tiny">• Steel strips should extend into bezel margins if using magnetic bezel attachment; otherwise add separate steel landing plates/washers under bezel magnets.</text>
  </g>

  <!-- Legend -->
  <g transform="translate(50 1905)">
    <rect x="0" y="-28" width="1240" height="42" fill="#f8fafc" stroke="#cbd5e1" rx="8"/>
    <rect class="panel" x="16" y="-18" width="24" height="16"/><text x="48" y="-5" class="tiny">LED module</text>
    <rect class="bezel" x="145" y="-18" width="24" height="16"/><text x="178" y="-5" class="tiny">removable PETG bezel</text>
    <rect class="steel" x="315" y="-18" width="24" height="16"/><text x="348" y="-5" class="tiny">mild steel magnet strip</text>
    <rect class="backer" x="505" y="-18" width="24" height="16"/><text x="538" y="-5" class="tiny">rigid backer board</text>
    <rect class="psu" x="675" y="-18" width="28" height="16"/><text x="713" y="-5" class="tiny">5V 60A PSU</text>
    <rect class="fuse" x="825" y="-18" width="28" height="16"/><text x="863" y="-5" class="tiny">fused distribution</text>
    <line class="ribbon" x1="1010" y1="-10" x2="1050" y2="-10"/><text x="1058" y="-5" class="tiny">HUB75 signal</text>
    <line class="power" x1="1145" y1="-10" x2="1185" y2="-10"/><text x="1193" y="-5" class="tiny">+5V branch</text>
    <line class="ground" x1="1280" y1="-10" x2="1320" y2="-10"/><text x="1328" y="-5" class="tiny">ground</text>
  </g>
</svg>
